<svg width="84" height="26" viewBox="0 0 84 26" fill="none" xmlns="http://www.w3.org/2000/svg">
<path d="M27.6443 25.762L25.6029 20.0412H26.4598L28.2911 25.174H28.1399L29.9712 20.0412H30.8281L28.7868 25.762H27.6443Z" fill="#AD99E4"/>
<path d="M33.4565 23.6367H36.5395V24.4263H33.4565V23.6367ZM32.3812 25.762L34.4225 20.0412H35.565L37.6064 25.762H36.7495L34.9182 20.6292H35.0694L33.238 25.762H32.3812Z" fill="#AD99E4"/>
<path d="M44.4914 25.762L40.7951 20.9653L41.2655 20.8308V25.762H40.4255V20.0412H41.1395L44.7098 24.6699H44.3654V20.0412H45.2054V25.762H44.4914Z" fill="#AD99E4"/>
<path d="M51.1637 25.846C50.5868 25.846 50.08 25.72 49.6431 25.468C49.2119 25.2104 48.8759 24.8604 48.6351 24.4179C48.3942 23.9699 48.2738 23.4658 48.2738 22.9058C48.2738 22.4802 48.3466 22.0881 48.4922 21.7297C48.6379 21.3713 48.8395 21.0605 49.0971 20.7972C49.3603 20.534 49.6655 20.3296 50.0128 20.184C50.3656 20.0384 50.7492 19.9656 51.1637 19.9656C51.8133 19.9656 52.3453 20.1 52.7598 20.3688C53.1742 20.632 53.513 20.9877 53.7763 21.4357L52.953 21.6793C52.6954 21.3265 52.4181 21.0885 52.1213 20.9653C51.8301 20.8364 51.5109 20.772 51.1637 20.772C50.7772 20.772 50.43 20.8644 50.122 21.0493C49.8195 21.2341 49.5787 21.4861 49.3995 21.8053C49.2203 22.1245 49.1307 22.4914 49.1307 22.9058C49.1307 23.3146 49.2203 23.6815 49.3995 24.0063C49.5787 24.3255 49.8195 24.5775 50.122 24.7623C50.43 24.9472 50.7772 25.0396 51.1637 25.0396C51.5333 25.0396 51.8693 24.9584 52.1717 24.7959C52.4798 24.6279 52.7234 24.4011 52.9026 24.1155C53.0818 23.8299 53.1714 23.5051 53.1714 23.141L53.2974 23.6283H51.1132V22.8386H53.9191C53.9359 22.8946 53.9471 22.959 53.9527 23.0318C53.9639 23.1046 53.9695 23.1746 53.9695 23.2418C53.9695 23.6003 53.8995 23.9363 53.7595 24.2499C53.6194 24.5635 53.4206 24.8408 53.163 25.0816C52.911 25.3224 52.6142 25.51 52.2725 25.6444C51.9365 25.7788 51.5669 25.846 51.1637 25.846Z" fill="#AD99E4"/>
<path d="M59.0826 25.846C58.6513 25.846 58.2677 25.762 57.9317 25.594C57.6013 25.426 57.3408 25.1768 57.1504 24.8464C56.96 24.5103 56.8648 24.0987 56.8648 23.6115V20.0412H57.7049V23.4854C57.7049 23.9783 57.8225 24.3619 58.0577 24.6363C58.2985 24.9052 58.6401 25.0396 59.0826 25.0396C59.5306 25.0396 59.8722 24.9052 60.1075 24.6363C60.3427 24.3619 60.4603 23.9783 60.4603 23.4854V20.0412H61.3004V23.6115C61.3004 24.0987 61.2051 24.5103 61.0147 24.8464C60.8243 25.1768 60.5611 25.426 60.2251 25.594C59.8946 25.762 59.5138 25.846 59.0826 25.846Z" fill="#AD99E4"/>
<path d="M64.9835 23.6367H68.0665V24.4263H64.9835V23.6367ZM63.9082 25.762L65.9496 20.0412H67.0921L69.1334 25.762H68.2766L66.4452 20.6292H66.5964L64.7651 25.762H63.9082Z" fill="#AD99E4"/>
<path d="M71.9525 25.762V20.0412H74.0527C74.4447 20.0412 74.7863 20.1252 75.0775 20.2932C75.3744 20.4556 75.604 20.6768 75.7664 20.9569C75.9288 21.2369 76.01 21.5505 76.01 21.8977C76.01 22.245 75.9288 22.5586 75.7664 22.8386C75.604 23.1186 75.3744 23.3398 75.0775 23.5023C74.7863 23.6647 74.4447 23.7459 74.0527 23.7459H72.6414V22.9562H73.9099C74.2795 22.9562 74.5763 22.8638 74.8003 22.679C75.0243 22.4886 75.1363 22.2282 75.1363 21.8977C75.1363 21.5449 75.0243 21.2789 74.8003 21.0997C74.5763 20.9205 74.2795 20.8308 73.9099 20.8308H72.633L72.7926 20.6376V25.762H71.9525ZM75.1447 25.762L73.809 23.3846H74.7331L76.0688 25.762H75.1447Z" fill="#AD99E4"/>
<path d="M79.2621 25.762V20.0412H81.1438C81.6926 20.0412 82.1827 20.156 82.6139 20.3856C83.0451 20.6152 83.384 20.9457 83.6304 21.3769C83.8768 21.8025 84 22.315 84 22.9142C84 23.5247 83.874 24.0427 83.622 24.4683C83.3756 24.8884 83.0367 25.2104 82.6055 25.4344C82.1743 25.6528 81.6842 25.762 81.1354 25.762H79.2621ZM80.1021 25.1572L79.8501 24.9724H81.0934C81.4686 24.9724 81.8074 24.8996 82.1099 24.7539C82.4179 24.6027 82.6643 24.3759 82.8491 24.0735C83.0339 23.7711 83.1264 23.3846 83.1264 22.9142C83.1264 22.4606 83.0339 22.0797 82.8491 21.7717C82.6699 21.4581 82.4263 21.2229 82.1183 21.0661C81.8158 20.9092 81.477 20.8308 81.1018 20.8308H79.7913L80.1021 20.5284V25.1572Z" fill="#AD99E4"/>
<path fill-rule="evenodd" clip-rule="evenodd" d="M73.1524 7.23029C74.0148 7.23033 74.7542 7.42623 75.3702 7.81822C75.9861 8.21024 76.4622 8.73116 76.7982 9.38076C77.1342 10.0192 77.3018 10.736 77.3019 11.5312C77.3019 11.7104 77.2967 11.873 77.2855 12.0185C77.2743 12.1641 77.257 12.2817 77.2346 12.3713H71.4674C71.5283 12.7597 71.6867 13.0736 71.9426 13.3126C72.2786 13.6148 72.749 13.7659 73.3537 13.7659C73.8353 13.7659 74.2162 13.6761 74.4962 13.4969C74.7873 13.3065 75.0283 13.066 75.2187 12.7749L77.0333 13.749C76.6861 14.3874 76.1762 14.8973 75.5042 15.2782C74.8322 15.6477 74.0483 15.8327 73.1524 15.8327C72.3235 15.8327 71.5953 15.6588 70.968 15.3115C70.352 14.9643 69.8703 14.4716 69.5231 13.8332C69.1759 13.1948 69.0024 12.4387 69.0024 11.5652C69.0024 10.7251 69.1758 9.98009 69.5231 9.33045C69.8703 8.6808 70.352 8.1709 70.968 7.80127C71.5952 7.42049 72.3236 7.23029 73.1524 7.23029ZM73.1858 9.33045C72.6481 9.33045 72.2223 9.48717 71.9087 9.8008C71.7105 9.99905 71.5753 10.24 71.5024 10.5233H74.8254C74.7575 10.2612 74.6432 10.0315 74.4792 9.83471C74.1992 9.49868 73.7682 9.33045 73.1858 9.33045Z" fill="white"/>
<path d="M81.9096 7.44851H83.7746V9.9687H81.9096V12.1028C81.9097 12.5059 81.9996 12.7912 82.1787 12.9592C82.3691 13.1273 82.6157 13.2114 82.9182 13.2114C83.0861 13.2114 83.243 13.1946 83.3885 13.1611C83.5452 13.1275 83.6739 13.094 83.7746 13.0604V15.614C83.5618 15.6812 83.3377 15.7319 83.1025 15.7655C82.8674 15.799 82.6043 15.8158 82.3133 15.8158C81.3388 15.8158 80.5713 15.5859 80.0113 15.1267C79.4625 14.6674 79.1882 13.9057 79.1882 12.8417V9.9687H77.9111V7.44851H79.1543L79.7258 5.44952H81.9096V7.44851Z" fill="white"/>
<path fill-rule="evenodd" clip-rule="evenodd" d="M30.3261 4.23974C31.1996 4.23976 31.9667 4.40753 32.6275 4.74345C33.2883 5.07948 33.804 5.56117 34.1736 6.18841C34.5432 6.81563 34.7276 7.57741 34.7276 8.47343C34.7276 9.38068 34.5432 10.1482 34.1736 10.7754C33.804 11.4027 33.2883 11.8843 32.6275 12.2204C31.9667 12.5563 31.1996 12.724 30.3261 12.7241H28.8472V15.6813H26.1257V4.23974H30.3261ZM28.8472 10.0699H30.1746C30.7458 10.0699 31.1826 9.93506 31.485 9.66626C31.7874 9.38623 31.9389 8.98867 31.9389 8.47343C31.9389 7.94704 31.7874 7.5494 31.485 7.2806C31.1826 7.01187 30.7457 6.87752 30.1746 6.87752H28.8472V10.0699Z" fill="white"/>
<path d="M38.4937 8.04136C38.8212 7.8211 39.1685 7.64 39.5356 7.49882C39.9835 7.31967 40.4539 7.23031 40.9466 7.23029C41.4955 7.23029 41.9437 7.32536 42.291 7.51578C42.6381 7.70615 42.9067 7.96385 43.0971 8.28857C43.2875 8.60214 43.4166 8.96066 43.4838 9.36381C43.5622 9.76698 43.6014 10.1871 43.6014 10.6239V15.6813H40.8794V10.9433C40.8794 10.5177 40.8125 10.2377 40.6781 10.1032C40.5437 9.96887 40.3477 9.90147 40.0902 9.90143C39.8998 9.90143 39.698 9.94067 39.4853 10.019C39.2725 10.0862 39.0593 10.1928 38.8465 10.3384C38.7287 10.4169 38.6115 10.5055 38.4937 10.6031V15.6813H35.7723V4.23974H38.4937V8.04136Z" fill="white"/>
<path d="M47.8471 15.6813H45.1081V7.44851H47.8471V15.6813Z" fill="white"/>
<path d="M52.2443 13.0435H56.6131V15.6813H49.5229V4.23974H52.2443V13.0435Z" fill="white"/>
<path d="M65.0832 10.8323V4.23974H67.8052V15.6813H65.302L60.5301 9.10402V15.6813H57.8086V4.23974H60.3288L65.0832 10.8323Z" fill="white"/>
<path d="M46.4858 3.26514C46.9675 3.26514 47.3483 3.4109 47.6283 3.70212C47.9083 3.98215 48.0484 4.363 48.0484 4.84463C48.0483 5.30379 47.9083 5.679 47.6283 5.97019C47.3483 6.25015 46.9674 6.39022 46.4858 6.39022C46.0155 6.39019 45.6345 6.25018 45.3433 5.97019C45.0522 5.67901 44.9069 5.30375 44.9069 4.84463C44.9069 4.36309 45.0522 3.98213 45.3433 3.70212C45.6345 3.41094 46.0155 3.26517 46.4858 3.26514Z" fill="white"/>
<path d="M10.6805 10.0464L20.3597 17.5561C19.7144 19.3139 18.7857 20.8995 17.5734 22.3129C16.3612 23.7263 14.9536 24.8442 13.3506 25.6666V17.3558H8.01038V25.6666C6.40831 24.8433 5.00115 23.7254 3.78891 22.3129C2.57667 20.9004 1.64747 19.3148 1.0013 17.5561L10.6805 10.0464ZM10.6805 0L21.361 4.00519V12.1157C21.361 12.5607 21.3388 13.0004 21.2943 13.4347C21.2498 13.8691 21.1941 14.3083 21.1274 14.7525L10.6805 6.67532L0.233636 14.7525C0.144632 14.3074 0.0836642 13.8682 0.0507326 13.4347C0.017801 13.0013 0.000890043 12.5616 0 12.1157V4.00519L10.6805 0Z" fill="#C8F119"/>
</svg>
