<svg width="130" height="37" viewBox="0 0 130 37" fill="none" xmlns="http://www.w3.org/2000/svg">
<path d="M40.0138 35.9767L36.7543 26.8419H38.1225L41.0467 35.0377H40.8052L43.7294 26.8419H45.0976L41.8381 35.9767H40.0138Z" fill="#AD99E4"/>
<path d="M49.2945 32.583H54.2173V33.8439H49.2945V32.583ZM47.5775 35.9767L50.837 26.8419H52.6613L55.9209 35.9767H54.5527L51.6285 27.7809H51.8699L48.9457 35.9767H47.5775Z" fill="#AD99E4"/>
<path d="M66.9145 35.9767L61.0124 28.3174L61.7636 28.1028V35.9767H60.4222V26.8419H61.5624L67.2632 34.2329H66.7133V26.8419H68.0546V35.9767H66.9145Z" fill="#AD99E4"/>
<path d="M77.5685 36.1108C76.6474 36.1108 75.8381 35.9096 75.1406 35.5072C74.452 35.0958 73.9154 34.5369 73.5309 33.8305C73.1464 33.1151 72.9541 32.3102 72.9541 31.416C72.9541 30.7364 73.0704 30.1104 73.3029 29.5381C73.5354 28.9658 73.8573 28.4694 74.2687 28.0492C74.689 27.6289 75.1763 27.3025 75.7308 27.0699C76.2941 26.8374 76.9067 26.7212 77.5685 26.7212C78.6058 26.7212 79.4553 26.9358 80.1171 27.3651C80.7788 27.7853 81.3198 28.3532 81.7401 29.0686L80.4256 29.4576C80.0142 28.8942 79.5716 28.5142 79.0976 28.3174C78.6326 28.1117 78.1229 28.0089 77.5685 28.0089C76.9514 28.0089 76.397 28.1565 75.9051 28.4516C75.4223 28.7467 75.0377 29.1491 74.7516 29.6588C74.4654 30.1685 74.3223 30.7543 74.3223 31.416C74.3223 32.0688 74.4654 32.6545 74.7516 33.1732C75.0377 33.6829 75.4223 34.0853 75.9051 34.3804C76.397 34.6755 76.9514 34.8231 77.5685 34.8231C78.1587 34.8231 78.6952 34.6934 79.1781 34.4341C79.6699 34.1658 80.0589 33.8036 80.3451 33.3476C80.6313 32.8915 80.7743 32.3728 80.7743 31.7916L80.9756 32.5696H77.488V31.3087H81.9682C81.995 31.3981 82.0129 31.501 82.0218 31.6172C82.0397 31.7335 82.0487 31.8452 82.0487 31.9525C82.0487 32.5249 81.9369 33.0614 81.7133 33.5622C81.4897 34.063 81.1723 34.5056 80.7609 34.8902C80.3585 35.2747 79.8846 35.5742 79.3391 35.7889C78.8025 36.0035 78.2123 36.1108 77.5685 36.1108Z" fill="#AD99E4"/>
<path d="M90.213 36.1108C89.5244 36.1108 88.9119 35.9767 88.3753 35.7084C87.8477 35.4401 87.4319 35.0422 87.1279 34.5146C86.8238 33.978 86.6718 33.3207 86.6718 32.5427V26.8419H88.0132V32.3415C88.0132 33.1285 88.201 33.741 88.5765 34.1792C88.9611 34.6085 89.5066 34.8231 90.213 34.8231C90.9284 34.8231 91.4739 34.6085 91.8495 34.1792C92.2251 33.741 92.4129 33.1285 92.4129 32.3415V26.8419H93.7543V32.5427C93.7543 33.3207 93.6022 33.978 93.2982 34.5146C92.9941 35.0422 92.5738 35.4401 92.0373 35.7084C91.5097 35.9767 90.9016 36.1108 90.213 36.1108Z" fill="#AD99E4"/>
<path d="M99.6353 32.583H104.558V33.8439H99.6353V32.583ZM97.9184 35.9767L101.178 26.8419H103.002L106.262 35.9767H104.894L101.969 27.7809H102.211L99.2866 35.9767H97.9184Z" fill="#AD99E4"/>
<path d="M110.763 35.9767V26.8419H114.117C114.743 26.8419 115.288 26.9761 115.753 27.2443C116.227 27.5037 116.594 27.8569 116.853 28.304C117.112 28.7511 117.242 29.2519 117.242 29.8063C117.242 30.3608 117.112 30.8616 116.853 31.3087C116.594 31.7558 116.227 32.109 115.753 32.3684C115.288 32.6277 114.743 32.7574 114.117 32.7574H111.863V31.4965H113.889C114.479 31.4965 114.953 31.3489 115.31 31.0538C115.668 30.7498 115.847 30.334 115.847 29.8063C115.847 29.243 115.668 28.8182 115.31 28.532C114.953 28.2459 114.479 28.1028 113.889 28.1028H111.85L112.104 27.7943V35.9767H110.763ZM115.86 35.9767L113.728 32.1806H115.203L117.336 35.9767H115.86Z" fill="#AD99E4"/>
<path d="M122.435 35.9767V26.8419H125.439C126.316 26.8419 127.098 27.0252 127.787 27.3919C128.475 27.7585 129.016 28.2861 129.41 28.9747C129.803 29.6543 130 30.4726 130 31.4294C130 32.4041 129.799 33.2313 129.396 33.9109C129.003 34.5816 128.462 35.0958 127.773 35.4535C127.085 35.8023 126.302 35.9767 125.426 35.9767H122.435ZM123.776 35.0109L123.374 34.7158H125.359C125.958 34.7158 126.499 34.5995 126.982 34.367C127.474 34.1256 127.867 33.7634 128.162 33.2805C128.457 32.7976 128.605 32.1806 128.605 31.4294C128.605 30.7051 128.457 30.097 128.162 29.6051C127.876 29.1044 127.487 28.7288 126.995 28.4784C126.512 28.228 125.971 28.1028 125.372 28.1028H123.28L123.776 27.6199V35.0109Z" fill="#AD99E4"/>
<path fill-rule="evenodd" clip-rule="evenodd" d="M112.679 6.38628C114.056 6.38634 115.237 6.69915 116.22 7.32506C117.204 7.95102 117.964 8.7828 118.501 9.82005C119.037 10.8394 119.305 11.9841 119.305 13.2538C119.305 13.5399 119.297 13.7995 119.279 14.0319C119.261 14.2644 119.233 14.4521 119.197 14.5952H109.989C110.086 15.2154 110.339 15.7167 110.747 16.0981C111.284 16.5808 112.035 16.8221 113.001 16.8221C113.77 16.8221 114.378 16.6786 114.825 16.3924C115.29 16.0885 115.675 15.7045 115.978 15.2397L118.876 16.795C118.322 17.8145 117.507 18.6286 116.434 19.2367C115.361 19.8268 114.11 20.1222 112.679 20.1222C111.356 20.1222 110.193 19.8444 109.191 19.29C108.208 18.7356 107.438 17.9489 106.884 16.9295C106.33 15.9101 106.053 14.7029 106.053 13.308C106.053 11.9666 106.33 10.777 106.884 9.73971C107.438 8.70238 108.208 7.8882 109.191 7.29799C110.193 6.68999 111.356 6.38628 112.679 6.38628ZM112.732 9.73971C111.874 9.73971 111.194 9.98996 110.693 10.4907C110.377 10.8073 110.161 11.192 110.044 11.6444H115.351C115.242 11.2259 115.06 10.8591 114.798 10.5449C114.351 10.0083 113.662 9.73972 112.732 9.73971Z" fill="white"/>
<path d="M126.662 6.73472H129.64V10.7588H126.662V14.1664C126.662 14.8101 126.806 15.2657 127.092 15.534C127.396 15.8023 127.79 15.9366 128.273 15.9366C128.541 15.9365 128.791 15.9099 129.024 15.8562C129.274 15.8026 129.479 15.7491 129.64 15.6955V19.7729C129.3 19.8802 128.943 19.9612 128.567 20.0148C128.192 20.0684 127.772 20.0952 127.307 20.0952C125.751 20.0952 124.525 19.7281 123.631 18.9948C122.755 18.2615 122.317 17.0452 122.317 15.3462V10.7588H120.278V6.73472H122.263L123.175 3.54285H126.662V6.73472Z" fill="white"/>
<path fill-rule="evenodd" clip-rule="evenodd" d="M44.2961 1.61113C45.6909 1.61116 46.9159 1.87904 47.9709 2.41543C49.0261 2.95198 49.8495 3.72112 50.4397 4.72266C51.0299 5.72418 51.3243 6.94054 51.3244 8.37126C51.3244 9.81992 51.0299 11.0454 50.4397 12.0469C49.8495 13.0485 49.0261 13.8176 47.9709 14.3542C46.9158 14.8906 45.6909 15.1584 44.2961 15.1585H41.9347V19.8803H37.5892V1.61113H44.2961ZM41.9347 10.9204H44.0542C44.9663 10.9204 45.6637 10.7051 46.1466 10.2759C46.6295 9.82878 46.8714 9.19397 46.8714 8.37126C46.8714 7.53076 46.6295 6.89583 46.1466 6.46662C45.6637 6.03752 44.9662 5.82301 44.0542 5.82301H41.9347V10.9204Z" fill="white"/>
<path d="M57.3378 7.68137C57.8608 7.32966 58.4154 7.04049 59.0015 6.81506C59.7167 6.52901 60.4678 6.38631 61.2546 6.38628C62.1309 6.38628 62.8467 6.53809 63.4011 6.84214C63.9554 7.14611 64.3843 7.5576 64.6883 8.07609C64.9923 8.57679 65.1984 9.14925 65.3058 9.79298C65.4309 10.4367 65.4935 11.1076 65.4935 11.805V19.8803H61.1471V12.315C61.1471 11.6355 61.0403 11.1883 60.8258 10.9737C60.6112 10.7591 60.2982 10.6515 59.887 10.6514C59.583 10.6514 59.2608 10.7141 58.9211 10.8392C58.5813 10.9465 58.2409 11.1167 57.9011 11.3492C57.7131 11.4745 57.5258 11.616 57.3378 11.7719V19.8803H52.9923V1.61113H57.3378V7.68137Z" fill="white"/>
<path d="M72.2729 19.8803H67.8994V6.73472H72.2729V19.8803Z" fill="white"/>
<path d="M79.2941 15.6685H86.27V19.8803H74.9486V1.61113H79.2941V15.6685Z" fill="white"/>
<path d="M99.7947 12.1378V1.61113H104.141V19.8803H100.144L92.5245 9.37817V19.8803H88.179V1.61113H92.2031L99.7947 12.1378Z" fill="white"/>
<path d="M70.0993 0.0549316C70.8683 0.0549316 71.4764 0.287681 71.9236 0.75269C72.3707 1.19981 72.5942 1.80794 72.5942 2.57699C72.5942 3.31015 72.3706 3.90927 71.9236 4.37422C71.4764 4.82124 70.8682 5.04491 70.0993 5.04491C69.3482 5.04485 68.7399 4.82129 68.2749 4.37422C67.8101 3.90929 67.5781 3.31008 67.5781 2.57699C67.5781 1.80809 67.8101 1.19979 68.2749 0.75269C68.7399 0.287737 69.3482 0.0549878 70.0993 0.0549316Z" fill="white"/>
<rect x="5.71997" y="5.58997" width="18.005" height="21.125" fill="black"/>
<path d="M1.30154 2.9972L14.9602 0L28.6189 2.9972C28.988 3.07822 29.3181 3.2811 29.5547 3.57235C29.7913 3.8636 29.9203 4.22581 29.9204 4.59921V20.9919C29.9203 22.6131 29.5148 24.2093 28.74 25.6387C27.9652 27.0681 26.845 28.2865 25.4789 29.1858L14.9602 36.1108L4.44152 29.1858C3.07561 28.2866 1.95556 27.0685 1.18077 25.6394C0.405979 24.2103 0.000392882 22.6145 0 20.9935V4.59921C6.48903e-05 4.22581 0.129053 3.8636 0.365676 3.57235C0.6023 3.2811 0.932414 3.07822 1.30154 2.9972ZM16.6224 14.7726V6.5656L8.31122 18.0554H13.298V26.2624L21.6092 14.7726H16.6224Z" fill="#C8F119"/>
</svg>
